/* XPM */
static char *a3a630348dbb488acd4662a989f414c2bKF4V5EuCZQT1pKd[] = {
/* columns rows colors chars-per-pixel */
"32 32 5 1 ",
"  c None",
". c #262B44",
"X c #68386C",
"o c #265C42",
"O c #B55088",
/* pixels */
"                                ",
"                                ",
"                                ",
"                                ",
"                                ",
"      o                         ",
"      o                         ",
"      oo                        ",
"       ooooo                    ",
"       ooo...                   ",
"      oooo....                  ",
"      o....X...                 ",
"      o....XX....               ",
"      ......XX......            ",
"      ......XOX........         ",
"      .......XOXXX......        ",
"       .......XOOOXXX...        ",
"       ........XXXOOOX...       ",
"        .........XXXX....       ",
"        .................       ",
"         ...............        ",
"          ..............        ",
"            ...........         ",
"               ......           ",
"                                ",
"                                ",
"                                ",
"                                ",
"                                ",
"                                ",
"                                ",
"                                "
};
