/* XPM */
static char *_ce6bd76c8614000ae94fb75a9db13afnyjoCF1W4XEKbG48[] = {
/* columns rows colors chars-per-pixel */
"32 32 9 1 ",
"  c None",
". c #252B43",
"X c #3A4467",
"o c #BF4830",
"O c #E43D44",
"+ c #FDAE35",
"@ c #8B9BB5",
"# c #C0CCDC",
"$ c #ECF0F1",
/* pixels */
"                                ",
"                                ",
"                                ",
"                                ",
"                                ",
"                                ",
"                                ",
"                                ",
"                                ",
"                                ",
"                                ",
"                                ",
"                                ",
"             ######@@@@oo       ",
"            ######@@@@@@ooo     ",
"      +++++++oooooooooooooooo   ",
"     #+++++#ooooooooooooooooo   ",
"    ##+++##ooo+..oooooo+..ooO   ",
"    @@$$$@@oo+....oooo+....o    ",
"      X....  X....    X....     ",
"       X..    X..      X..      ",
"                                ",
"                                ",
"                                ",
"                                ",
"                                ",
"                                ",
"                                ",
"                                ",
"                                ",
"                                ",
"                                "
};
