/* XPM */
static char *e55ccb7457df434cb48ccb5f61298265DI84tTFLQguuD9tu[] = {
/* columns rows colors chars-per-pixel */
"32 32 8 1 ",
"  c #282C38",
". c #60748A",
"X c #4C5C76",
"o c #76899D",
"O c #333B51",
"+ c #89A7B6",
"@ c #3E4860",
"# c white",
/* pixels */
"           .X....o     OOOO..oo+",
"  XXXXXXX   X....  o+o++oOO..oo+",
" @@O@@@@@X  ..... ......X+O..oo+",
" @@O@@@@@X        .......+O..oo+",
" @@O@@@@@X o+o++  .......oO..oo+",
" @OOOOOOOX .....+ @XX....oO..oo+",
" @@@@@O@@X .X...+ ..X....+O..oo+",
"  @@@@O@@X .....+ ..X....oO..oo+",
"  @@@@O@@X .....o ..XXXX@+O..oo+",
"  @@@@O@@  @XXXXo ..X....oO..oo+",
"           ..X..+ ..X....oO..ooo",
"    XXXXXX ..X..+  .X....oO..oo+",
"   @@@O@@X ..X...o @X....oO..ooo",
"   @O@O@@X ..@...o ......oO..oo+",
"   @@@O@@X o++...+ ......oO..oo+",
"    OOO@@X @..o..+ ......oO..oo+",
"   @@@O@@X X..+..+ @XXXX.oO..oo+",
"   @@@OO X X..o..+ ....X.oO..oo+",
"   @@@@@OX @@@o..o ....X.oO..oo+",
"    @@@@OX ......o ....X.oO..oo+",
" @@ @@@@OX ......+ X++oX.oO..oo+",
" @@ @@@@OX .XXXXXo X..oXXoO..ooo",
"    @@@@OX .X....o X..+..oO..ooo",
" @@ @@@@OX .X....o @..o..oO..ooo",
"    @@@@OX @@....o @..o..oO..oo+",
" @@ @@@@OX ......o @..o..oO..oo+",
"    OOOOOX ...XXXo @..o..oO..ooo",
"    @@O@@X ...X..o @..o..oO..oo+",
"    @@O@@X ...X..o @..X...O..oo+",
"    O@O@OX ...X..o @..o..oO..oo+",
"    @@O@@X @XXX..o @@@X...O..oo+",
"    @@O@@  .X...Xo ......oO..oo+"
};
